<svg xmlns="http://www.w3.org/2000/svg" viewBox="0 0 1920 1080" width="1920" height="1080">
  <defs>
    <linearGradient id="sky" x1="0" y1="0" x2="0" y2="1">
      <stop offset="0%" stop-color="#1a2e20"/>
      <stop offset="35%" stop-color="#243828"/>
      <stop offset="65%" stop-color="#2e4830"/>
      <stop offset="100%" stop-color="#345038"/>
    </linearGradient>
    <radialGradient id="cg1" cx="55%" cy="50%" r="55%">
      <stop offset="0%" stop-color="#4aac5a" stop-opacity="0.2"/>
      <stop offset="30%" stop-color="#f0c850" stop-opacity="0.1"/>
      <stop offset="100%" stop-color="transparent"/>
    </radialGradient>
    <radialGradient id="cg2" cx="75%" cy="60%" r="40%">
      <stop offset="0%" stop-color="#f0c850" stop-opacity="0.15"/>
      <stop offset="100%" stop-color="transparent"/>
    </radialGradient>
    <linearGradient id="water" x1="0" y1="0" x2="0" y2="1">
      <stop offset="0%" stop-color="#2a4030"/><stop offset="100%" stop-color="#1e3025"/>
    </linearGradient>
    <filter id="g1"><feGaussianBlur stdDeviation="4"/></filter>
    <filter id="g2"><feGaussianBlur stdDeviation="10"/></filter>
    <filter id="g3"><feGaussianBlur stdDeviation="20"/></filter>
    <pattern id="w1" width="14" height="18" patternUnits="userSpaceOnUse"><rect width="9" height="12" fill="#f0c850" opacity="0.5" rx="1"/></pattern>
    <pattern id="w2" width="14" height="18" patternUnits="userSpaceOnUse"><rect width="9" height="12" fill="#f0c850" opacity="0.7" rx="1"/></pattern>
  </defs>
  <rect width="1920" height="1080" fill="url(#sky)"/>
  <rect width="1920" height="1080" fill="url(#cg1)"/>
  <rect width="1920" height="1080" fill="url(#cg2)"/>
  <ellipse cx="1100" cy="480" rx="700" ry="350" fill="#4aac5a" opacity="0.06" filter="url(#g3)"/>
  <ellipse cx="800" cy="500" rx="500" ry="250" fill="#f0c850" opacity="0.05" filter="url(#g3)"/>
  <!-- Far buildings -->
  <g opacity="0.5"><rect x="550" y="320" width="30" height="230" fill="#304838" rx="2"/><rect x="600" y="350" width="25" height="200" fill="#2c4434" rx="2"/><rect x="640" y="330" width="35" height="220" fill="#304838" rx="2"/><rect x="700" y="360" width="28" height="190" fill="#2c4434" rx="2"/><rect x="750" y="340" width="40" height="210" fill="#304838" rx="2"/><rect x="810" y="370" width="30" height="180" fill="#2c4434" rx="2"/><rect x="860" y="310" width="25" height="240" fill="#304838" rx="2"/><rect x="900" y="350" width="35" height="200" fill="#2c4434" rx="2"/><rect x="950" y="380" width="28" height="170" fill="#304838" rx="2"/><rect x="1000" y="330" width="32" height="220" fill="#2c4434" rx="2"/><rect x="1050" y="360" width="25" height="190" fill="#304838" rx="2"/><rect x="1400" y="350" width="30" height="200" fill="#2c4434" rx="2"/><rect x="1450" y="370" width="35" height="180" fill="#304838" rx="2"/><rect x="1500" y="340" width="28" height="210" fill="#2c4434" rx="2"/><rect x="1550" y="380" width="40" height="170" fill="#304838" rx="2"/><rect x="1620" y="360" width="30" height="190" fill="#2c4434" rx="2"/><rect x="1670" y="390" width="35" height="160" fill="#304838" rx="2"/><rect x="1730" y="350" width="28" height="200" fill="#2c4434" rx="2"/></g>
  <!-- Mid buildings with windows -->
  <rect x="1150" y="140" width="75" height="420" fill="#3a5840" rx="3"/><rect x="1155" y="145" width="65" height="410" fill="url(#w2)"/><rect x="1150" y="140" width="75" height="6" fill="#4aac5a" opacity="0.4"/><rect x="1185" y="95" width="5" height="45" fill="#3a5840"/><circle cx="1187" cy="92" r="5" fill="#f0c850" opacity="0.8"/><circle cx="1187" cy="92" r="15" fill="#f0c850" opacity="0.15" filter="url(#g2)"/>
  <rect x="1050" y="220" width="60" height="340" fill="#365640" rx="2"/><rect x="1055" y="225" width="50" height="330" fill="url(#w1)"/>
  <rect x="1250" y="290" width="110" height="270" fill="#3a5840" rx="2"/><rect x="1255" y="295" width="100" height="260" fill="url(#w2)"/><rect x="1250" y="290" width="110" height="5" fill="#f0c850" opacity="0.3"/>
  <!-- Tsutenkaku -->
  <g transform="translate(1420,120)"><rect x="-6" y="0" width="12" height="35" fill="#3a5840"/><rect x="-25" y="35" width="50" height="65" fill="#365640" rx="3"/><rect x="-28" y="33" width="56" height="8" fill="#3a5840" rx="2"/><circle cx="0" cy="62" r="20" fill="#f0c850" opacity="0.2" filter="url(#g2)"/><circle cx="0" cy="62" r="8" fill="#f0c850" opacity="0.5"/><rect x="-18" y="100" width="36" height="35" fill="#365640"/><rect x="-14" y="135" width="28" height="220" fill="#3a5840"/><rect x="-20" y="132" width="40" height="6" fill="#365640" rx="2"/><circle cx="-15" cy="55" r="3" fill="#3a8c4a" opacity="0.7"/><circle cx="15" cy="55" r="3" fill="#3a8c4a" opacity="0.7"/><circle cx="0" cy="40" r="4" fill="#f0c850" opacity="0.6"/></g>
  <!-- Left buildings -->
  <rect x="350" y="310" width="90" height="250" fill="#365640" rx="2"/><rect x="355" y="315" width="80" height="240" fill="url(#w1)"/><rect x="460" y="270" width="65" height="290" fill="#3a5840" rx="2"/><rect x="465" y="275" width="55" height="280" fill="url(#w2)"/><rect x="250" y="350" width="75" height="210" fill="#365640" rx="2"/><rect x="255" y="355" width="65" height="200" fill="url(#w1)"/><rect x="150" y="380" width="60" height="180" fill="#3a5840" rx="2"/>
  <!-- Osaka Castle -->
  <g transform="translate(100,300)" opacity="0.5"><rect x="-35" y="70" width="70" height="55" fill="#3a5840"/><rect x="-42" y="62" width="84" height="12" fill="#3a5840"/><rect x="-28" y="30" width="56" height="36" fill="#3a5840"/><rect x="-34" y="23" width="68" height="10" fill="#3a5840"/><polygon points="-30,23 0,5 30,23" fill="#3a5840"/><rect x="-3" y="-8" width="6" height="14" fill="#3a5840"/><ellipse cx="0" cy="50" rx="40" ry="25" fill="#f0c850" opacity="0.06" filter="url(#g2)"/></g>
  <!-- Ground + Road -->
  <rect x="0" y="560" width="1920" height="520" fill="#2a4430"/>
  <rect x="0" y="610" width="1920" height="180" fill="#243828"/>
  <g opacity="0.3"><rect x="60" y="698" width="90" height="4" fill="#fff" rx="2"/><rect x="260" y="698" width="90" height="4" fill="#fff" rx="2"/><rect x="460" y="698" width="90" height="4" fill="#fff" rx="2"/><rect x="660" y="698" width="90" height="4" fill="#fff" rx="2"/><rect x="860" y="698" width="90" height="4" fill="#fff" rx="2"/><rect x="1060" y="698" width="90" height="4" fill="#fff" rx="2"/><rect x="1260" y="698" width="90" height="4" fill="#fff" rx="2"/><rect x="1460" y="698" width="90" height="4" fill="#fff" rx="2"/><rect x="1660" y="698" width="90" height="4" fill="#fff" rx="2"/></g>
  <!-- Bokeh large --><g filter="url(#g3)"><circle cx="250" cy="400" r="18" fill="#f0c850" opacity="0.35"/><circle cx="600" cy="360" r="15" fill="#4aac5a" opacity="0.3"/><circle cx="850" cy="420" r="20" fill="#f0c850" opacity="0.3"/><circle cx="1100" cy="380" r="16" fill="#4aac5a" opacity="0.35"/><circle cx="1350" cy="410" r="18" fill="#f0c850" opacity="0.3"/><circle cx="1600" cy="370" r="14" fill="#4aac5a" opacity="0.25"/><circle cx="1800" cy="430" r="16" fill="#f0c850" opacity="0.2"/></g>
  <!-- Bokeh med --><g filter="url(#g2)"><circle cx="120" cy="460" r="10" fill="#f0c850" opacity="0.5"/><circle cx="350" cy="490" r="8" fill="#4aac5a" opacity="0.45"/><circle cx="550" cy="470" r="11" fill="#f0c850" opacity="0.4"/><circle cx="720" cy="500" r="9" fill="#e8962e" opacity="0.45"/><circle cx="950" cy="480" r="10" fill="#f0c850" opacity="0.45"/><circle cx="1200" cy="490" r="8" fill="#4aac5a" opacity="0.4"/><circle cx="1450" cy="460" r="11" fill="#f0c850" opacity="0.35"/><circle cx="1700" cy="485" r="9" fill="#4aac5a" opacity="0.4"/></g>
  <!-- Bokeh small --><g opacity="0.7"><circle cx="100" cy="440" r="2.5" fill="#f0c850"/><circle cx="230" cy="465" r="2" fill="#fff"/><circle cx="340" cy="430" r="2.5" fill="#f0c850"/><circle cx="480" cy="485" r="2" fill="#4aac5a"/><circle cx="620" cy="440" r="2.5" fill="#f0c850"/><circle cx="710" cy="500" r="2" fill="#fff"/><circle cx="870" cy="455" r="2.5" fill="#f0c850"/><circle cx="980" cy="495" r="2" fill="#4aac5a"/><circle cx="1130" cy="440" r="2.5" fill="#f0c850"/><circle cx="1240" cy="505" r="2" fill="#fff"/><circle cx="1370" cy="450" r="2.5" fill="#f0c850"/><circle cx="1490" cy="480" r="2" fill="#4aac5a"/><circle cx="1620" cy="435" r="2.5" fill="#f0c850"/><circle cx="1750" cy="500" r="2" fill="#f0c850"/><circle cx="1860" cy="455" r="2.5" fill="#fff"/></g>
  <!-- Truck -->
  <g transform="translate(1050,530)"><ellipse cx="180" cy="235" rx="210" ry="18" fill="#1a2e20" opacity="0.5" filter="url(#g1)"/><rect x="0" y="20" width="245" height="155" rx="8" fill="#3a8c4a"/><rect x="0" y="20" width="245" height="78" rx="8" fill="#4aac5a" opacity="0.3"/><rect x="3" y="23" width="239" height="149" rx="7" fill="none" stroke="#6abe6a" stroke-width="1.5" opacity="0.4"/><rect x="0" y="92" width="245" height="5" fill="#f0c850" opacity="0.8" rx="1"/><text x="122" y="68" text-anchor="middle" font-family="sans-serif" font-weight="900" font-size="34" fill="#fff">エコ富</text><text x="122" y="118" text-anchor="middle" font-family="sans-serif" font-weight="700" font-size="15" fill="#f0c850">不用品回収・出張買取</text><text x="122" y="148" text-anchor="middle" font-family="sans-serif" font-weight="500" font-size="13" fill="#fff" opacity="0.7">072-600-0259</text><rect x="245" y="50" width="98" height="125" rx="6" fill="#2d6a35"/><rect x="256" y="62" width="38" height="52" rx="4" fill="#1a2e20"/><rect x="300" y="62" width="32" height="52" rx="4" fill="#1a2e20"/><circle cx="345" cy="132" r="7" fill="#f0c850" opacity="0.9"/><circle cx="345" cy="132" r="18" fill="#f0c850" opacity="0.15" filter="url(#g2)"/><circle cx="55" cy="180" r="30" fill="#1a2e20"/><circle cx="55" cy="180" r="23" fill="#222"/><circle cx="55" cy="180" r="19" fill="#2a2a2a"/><circle cx="200" cy="180" r="30" fill="#1a2e20"/><circle cx="200" cy="180" r="23" fill="#222"/><circle cx="200" cy="180" r="19" fill="#2a2a2a"/><circle cx="305" cy="180" r="30" fill="#1a2e20"/><circle cx="305" cy="180" r="23" fill="#222"/><circle cx="305" cy="180" r="19" fill="#2a2a2a"/></g>
  <!-- Neon signs -->
  <g transform="translate(1650,310)"><rect x="0" y="0" width="100" height="40" rx="4" fill="none" stroke="#4aac5a" stroke-width="1.5" opacity="0.5"/><text x="50" y="28" text-anchor="middle" font-family="sans-serif" font-weight="900" font-size="16" fill="#4aac5a" opacity="0.8">買取強化</text></g>
  <g transform="translate(1680,370)"><rect x="0" y="0" width="80" height="35" rx="4" fill="none" stroke="#f0c850" stroke-width="1" opacity="0.4"/><text x="40" y="24" text-anchor="middle" font-family="sans-serif" font-weight="900" font-size="14" fill="#f0c850" opacity="0.7">即日OK</text></g>
  <!-- Water -->
  <rect x="0" y="810" width="1920" height="270" fill="url(#water)"/>
  <g opacity="0.12"><rect x="80" y="840" width="200" height="1.5" fill="#f0c850" rx="1"/><rect x="400" y="860" width="180" height="1.5" fill="#4aac5a" rx="1"/><rect x="750" y="845" width="250" height="1.5" fill="#f0c850" rx="1"/><rect x="1100" y="870" width="200" height="1.5" fill="#4aac5a" rx="1"/><rect x="1400" y="850" width="280" height="1.5" fill="#f0c850" rx="1"/><rect x="1750" y="865" width="150" height="1.5" fill="#4aac5a" rx="1"/></g>
  <!-- Stars --><g opacity="0.5"><circle cx="120" cy="50" r="1.2" fill="#fff"/><circle cx="350" cy="80" r="1" fill="#fff"/><circle cx="580" cy="35" r="1.3" fill="#fff"/><circle cx="800" cy="65" r="1" fill="#fff"/><circle cx="1050" cy="40" r="1.2" fill="#fff"/><circle cx="1300" cy="75" r="1" fill="#fff"/><circle cx="1550" cy="45" r="1.2" fill="#fff"/><circle cx="1780" cy="60" r="1" fill="#fff"/></g>
  <rect x="0" y="950" width="1920" height="130" fill="#1a2e20" opacity="0.4"/>
</svg>
