<svg xmlns="http://www.w3.org/2000/svg" viewBox="0 0 1920 1080" width="1920" height="1080">
  <defs>
    <linearGradient id="sky" x1="0" y1="0" x2="0" y2="1">
      <stop offset="0%" stop-color="#1e3525"/>
      <stop offset="40%" stop-color="#2a4a30"/>
      <stop offset="70%" stop-color="#355a3a"/>
      <stop offset="100%" stop-color="#3a6240"/>
    </linearGradient>
    <radialGradient id="glow1" cx="50%" cy="45%" r="50%">
      <stop offset="0%" stop-color="#5ac06a" stop-opacity="0.2"/>
      <stop offset="50%" stop-color="#f0c850" stop-opacity="0.08"/>
      <stop offset="100%" stop-color="transparent"/>
    </radialGradient>
    <radialGradient id="glow2" cx="70%" cy="55%" r="35%">
      <stop offset="0%" stop-color="#f0c850" stop-opacity="0.18"/>
      <stop offset="100%" stop-color="transparent"/>
    </radialGradient>
    <filter id="g1"><feGaussianBlur stdDeviation="4"/></filter>
    <filter id="g2"><feGaussianBlur stdDeviation="10"/></filter>
    <filter id="g3"><feGaussianBlur stdDeviation="18"/></filter>
  </defs>

  <!-- Sky -->
  <rect width="1920" height="1080" fill="url(#sky)"/>
  <rect width="1920" height="1080" fill="url(#glow1)"/>
  <rect width="1920" height="1080" fill="url(#glow2)"/>

  <!-- ═══ OSAKA SKYLINE - リアル版 ═══ -->

  <!-- あべのハルカス (300m - 日本一高いビル) -->
  <g transform="translate(1180, 50)">
    <rect x="-35" y="0" width="70" height="510" fill="#3e6848" rx="2"/>
    <rect x="-30" y="5" width="60" height="500" fill="#4a7a52" opacity="0.3"/>
    <!-- 窓の光 (多数) -->
    <g fill="#f0c850">
      <rect x="-25" y="15" width="7" height="5" opacity="0.8" rx="1"/><rect x="-12" y="15" width="7" height="5" opacity="0.6" rx="1"/><rect x="1" y="15" width="7" height="5" opacity="0.7" rx="1"/><rect x="14" y="15" width="7" height="5" opacity="0.5" rx="1"/>
      <rect x="-25" y="35" width="7" height="5" opacity="0.6" rx="1"/><rect x="1" y="35" width="7" height="5" opacity="0.8" rx="1"/><rect x="14" y="35" width="7" height="5" opacity="0.7" rx="1"/>
      <rect x="-25" y="55" width="7" height="5" opacity="0.7" rx="1"/><rect x="-12" y="55" width="7" height="5" opacity="0.8" rx="1"/><rect x="14" y="55" width="7" height="5" opacity="0.6" rx="1"/>
      <rect x="-12" y="75" width="7" height="5" opacity="0.7" rx="1"/><rect x="1" y="75" width="7" height="5" opacity="0.6" rx="1"/><rect x="14" y="75" width="7" height="5" opacity="0.8" rx="1"/>
      <rect x="-25" y="95" width="7" height="5" opacity="0.8" rx="1"/><rect x="1" y="95" width="7" height="5" opacity="0.5" rx="1"/>
      <rect x="-25" y="115" width="7" height="5" opacity="0.6" rx="1"/><rect x="-12" y="115" width="7" height="5" opacity="0.7" rx="1"/><rect x="14" y="115" width="7" height="5" opacity="0.8" rx="1"/>
      <rect x="-25" y="145" width="7" height="5" opacity="0.7" rx="1"/><rect x="1" y="145" width="7" height="5" opacity="0.8" rx="1"/>
      <rect x="-12" y="175" width="7" height="5" opacity="0.6" rx="1"/><rect x="14" y="175" width="7" height="5" opacity="0.7" rx="1"/>
      <rect x="-25" y="205" width="7" height="5" opacity="0.8" rx="1"/><rect x="1" y="205" width="7" height="5" opacity="0.6" rx="1"/>
      <rect x="-12" y="240" width="7" height="5" opacity="0.7" rx="1"/><rect x="14" y="240" width="7" height="5" opacity="0.8" rx="1"/>
      <rect x="-25" y="280" width="7" height="5" opacity="0.6" rx="1"/><rect x="1" y="280" width="7" height="5" opacity="0.7" rx="1"/>
      <rect x="-12" y="320" width="7" height="5" opacity="0.8" rx="1"/><rect x="-25" y="360" width="7" height="5" opacity="0.6" rx="1"/>
      <rect x="14" y="400" width="7" height="5" opacity="0.7" rx="1"/><rect x="-12" y="440" width="7" height="5" opacity="0.6" rx="1"/>
    </g>
    <!-- 頂上の赤い航空灯 -->
    <circle cx="0" cy="-5" r="4" fill="#ff4444" opacity="0.8"/>
    <circle cx="0" cy="-5" r="12" fill="#ff4444" opacity="0.15" filter="url(#g2)"/>
  </g>

  <!-- 通天閣 (リアル版) -->
  <g transform="translate(1450, 100)">
    <!-- アンテナ -->
    <rect x="-3" y="0" width="6" height="40" fill="#4a7a52"/>
    <circle cx="0" cy="-2" r="5" fill="#f0c850" opacity="0.9"/>
    <circle cx="0" cy="-2" r="15" fill="#f0c850" opacity="0.2" filter="url(#g2)"/>
    <!-- 上部展望台 (八角形風) -->
    <rect x="-28" y="40" width="56" height="55" fill="#3e6848" rx="4"/>
    <rect x="-32" y="38" width="64" height="8" fill="#4a7a52" rx="3"/>
    <rect x="-32" y="90" width="64" height="8" fill="#4a7a52" rx="3"/>
    <!-- 展望台の光 -->
    <rect x="-22" y="52" width="44" height="28" fill="#f0c850" opacity="0.15" rx="3"/>
    <circle cx="0" cy="66" r="10" fill="#f0c850" opacity="0.4"/>
    <circle cx="0" cy="66" r="25" fill="#f0c850" opacity="0.1" filter="url(#g2)"/>
    <!-- 日立マーク風ネオン -->
    <rect x="-20" y="55" width="40" height="18" rx="3" fill="none" stroke="#4aac5a" stroke-width="1.5" opacity="0.6"/>
    <!-- 脚部 -->
    <rect x="-22" y="98" width="10" height="30" fill="#3e6848" transform="skewX(8)"/>
    <rect x="12" y="98" width="10" height="30" fill="#3e6848" transform="skewX(-8)"/>
    <!-- 下部構造 -->
    <rect x="-18" y="128" width="36" height="35" fill="#3e6848"/>
    <rect x="-14" y="163" width="28" height="200" fill="#426a48"/>
    <rect x="-20" y="160" width="40" height="6" fill="#4a7a52" rx="2"/>
    <!-- 脚部の装飾光 -->
    <circle cx="-12" cy="110" r="2" fill="#4aac5a" opacity="0.6"/>
    <circle cx="12" cy="110" r="2" fill="#4aac5a" opacity="0.6"/>
  </g>

  <!-- 大阪城 (左奥) -->
  <g transform="translate(180, 250)">
    <!-- 石垣 -->
    <rect x="-50" y="110" width="100" height="60" fill="#3a5a40"/>
    <rect x="-55" y="105" width="110" height="10" fill="#3e6248"/>
    <!-- 2層目 -->
    <rect x="-40" y="65" width="80" height="45" fill="#3a5a40"/>
    <rect x="-45" y="58" width="90" height="10" fill="#3e6248"/>
    <!-- 天守 -->
    <rect x="-30" y="30" width="60" height="32" fill="#3a5a40"/>
    <rect x="-35" y="23" width="70" height="10" fill="#3e6248"/>
    <!-- 屋根 (反り) -->
    <polygon points="-35,23 0,5 35,23" fill="#355838"/>
    <!-- しゃちほこ -->
    <rect x="-3" y="-8" width="6" height="14" fill="#f0c850" opacity="0.6"/>
    <!-- ライトアップ -->
    <ellipse cx="0" cy="80" rx="60" ry="40" fill="#f0c850" opacity="0.06" filter="url(#g3)"/>
    <!-- 窓の光 -->
    <rect x="-15" y="38" width="6" height="8" fill="#f0c850" opacity="0.5" rx="1"/>
    <rect x="9" y="38" width="6" height="8" fill="#f0c850" opacity="0.4" rx="1"/>
    <rect x="-20" y="75" width="6" height="8" fill="#f0c850" opacity="0.4" rx="1"/>
    <rect x="14" y="75" width="6" height="8" fill="#f0c850" opacity="0.5" rx="1"/>
  </g>

  <!-- 道頓堀エリアのビル群 (ネオンサイン多め) -->
  <g>
    <!-- 各ビル -->
    <rect x="400" y="280" width="85" height="280" fill="#3e6248" rx="2"/>
    <rect x="500" y="240" width="70" height="320" fill="#426a48" rx="2"/>
    <rect x="590" y="300" width="90" height="260" fill="#3e6248" rx="2"/>
    <rect x="700" y="260" width="65" height="300" fill="#426a48" rx="2"/>
    <rect x="780" y="310" width="80" height="250" fill="#3e6248" rx="2"/>
    <rect x="880" y="280" width="70" height="280" fill="#426a48" rx="2"/>
    <rect x="970" y="250" width="55" height="310" fill="#3e6248" rx="2"/>
    <!-- 窓の光 -->
    <g fill="#f0c850" opacity="0.6">
      <rect x="410" y="300" width="6" height="5" rx="1"/><rect x="425" y="300" width="6" height="5" rx="1"/><rect x="440" y="300" width="6" height="5" rx="1"/><rect x="455" y="300" width="6" height="5" rx="1"/><rect x="470" y="300" width="6" height="5" rx="1"/>
      <rect x="410" y="325" width="6" height="5" rx="1"/><rect x="440" y="325" width="6" height="5" rx="1"/><rect x="470" y="325" width="6" height="5" rx="1"/>
      <rect x="425" y="350" width="6" height="5" rx="1"/><rect x="455" y="350" width="6" height="5" rx="1"/>
      <rect x="410" y="375" width="6" height="5" rx="1"/><rect x="440" y="375" width="6" height="5" rx="1"/><rect x="470" y="375" width="6" height="5" rx="1"/>
      <rect x="510" y="260" width="6" height="5" rx="1"/><rect x="525" y="260" width="6" height="5" rx="1"/><rect x="540" y="260" width="6" height="5" rx="1"/><rect x="555" y="260" width="6" height="5" rx="1"/>
      <rect x="510" y="290" width="6" height="5" rx="1"/><rect x="540" y="290" width="6" height="5" rx="1"/>
      <rect x="525" y="320" width="6" height="5" rx="1"/><rect x="555" y="320" width="6" height="5" rx="1"/>
      <rect x="510" y="350" width="6" height="5" rx="1"/><rect x="540" y="350" width="6" height="5" rx="1"/>
      <rect x="600" y="320" width="6" height="5" rx="1"/><rect x="620" y="320" width="6" height="5" rx="1"/><rect x="640" y="320" width="6" height="5" rx="1"/><rect x="660" y="320" width="6" height="5" rx="1"/>
      <rect x="600" y="350" width="6" height="5" rx="1"/><rect x="640" y="350" width="6" height="5" rx="1"/>
      <rect x="710" y="280" width="6" height="5" rx="1"/><rect x="725" y="280" width="6" height="5" rx="1"/><rect x="740" y="280" width="6" height="5" rx="1"/>
      <rect x="710" y="310" width="6" height="5" rx="1"/><rect x="740" y="310" width="6" height="5" rx="1"/>
      <rect x="790" y="330" width="6" height="5" rx="1"/><rect x="810" y="330" width="6" height="5" rx="1"/><rect x="830" y="330" width="6" height="5" rx="1"/><rect x="850" y="330" width="6" height="5" rx="1"/>
      <rect x="790" y="360" width="6" height="5" rx="1"/><rect x="830" y="360" width="6" height="5" rx="1"/>
      <rect x="890" y="300" width="6" height="5" rx="1"/><rect x="910" y="300" width="6" height="5" rx="1"/><rect x="930" y="300" width="6" height="5" rx="1"/>
      <rect x="890" y="340" width="6" height="5" rx="1"/><rect x="930" y="340" width="6" height="5" rx="1"/>
      <rect x="980" y="270" width="6" height="5" rx="1"/><rect x="995" y="270" width="6" height="5" rx="1"/><rect x="1010" y="270" width="6" height="5" rx="1"/>
    </g>
    <!-- 道頓堀ネオンサイン -->
    <g transform="translate(550,245)">
      <rect x="0" y="0" width="80" height="28" rx="3" fill="#3a8c4a" opacity="0.3"/>
      <rect x="0" y="0" width="80" height="28" rx="3" fill="none" stroke="#5ac06a" stroke-width="1.5" opacity="0.6"/>
      <text x="40" y="20" text-anchor="middle" font-family="Hiragino Kaku Gothic ProN,Hiragino Sans,Yu Gothic,Meiryo,sans-serif" font-weight="900" font-size="13" fill="#5ac06a" opacity="0.9">不用品回収</text>
    </g>
    <g transform="translate(720,265)">
      <rect x="0" y="0" width="60" height="24" rx="3" fill="#f0c850" opacity="0.15"/>
      <rect x="0" y="0" width="60" height="24" rx="3" fill="none" stroke="#f0c850" stroke-width="1" opacity="0.5"/>
      <text x="30" y="17" text-anchor="middle" font-family="Hiragino Kaku Gothic ProN,Hiragino Sans,Yu Gothic,Meiryo,sans-serif" font-weight="900" font-size="11" fill="#f0c850" opacity="0.8">高価買取</text>
    </g>
    <g transform="translate(870,285)">
      <rect x="0" y="0" width="65" height="24" rx="3" fill="#e8962e" opacity="0.15"/>
      <rect x="0" y="0" width="65" height="24" rx="3" fill="none" stroke="#e8962e" stroke-width="1" opacity="0.5"/>
      <text x="32" y="17" text-anchor="middle" font-family="Hiragino Kaku Gothic ProN,Hiragino Sans,Yu Gothic,Meiryo,sans-serif" font-weight="900" font-size="11" fill="#e8962e" opacity="0.8">即日対応</text>
    </g>
  </g>

  <!-- 右端のビル群 -->
  <rect x="1300" y="250" width="100" height="310" fill="#3e6248" rx="2"/>
  <rect x="1550" y="300" width="80" height="260" fill="#426a48" rx="2"/>
  <rect x="1650" y="280" width="90" height="280" fill="#3e6248" rx="2"/>
  <rect x="1760" y="320" width="70" height="240" fill="#426a48" rx="2"/>
  <rect x="1850" y="350" width="60" height="210" fill="#3e6248" rx="2"/>
  <g fill="#f0c850" opacity="0.5">
    <rect x="1310" y="270" width="6" height="5" rx="1"/><rect x="1330" y="270" width="6" height="5" rx="1"/><rect x="1350" y="270" width="6" height="5" rx="1"/><rect x="1370" y="270" width="6" height="5" rx="1"/>
    <rect x="1310" y="300" width="6" height="5" rx="1"/><rect x="1350" y="300" width="6" height="5" rx="1"/>
    <rect x="1330" y="330" width="6" height="5" rx="1"/><rect x="1370" y="330" width="6" height="5" rx="1"/>
    <rect x="1560" y="320" width="6" height="5" rx="1"/><rect x="1580" y="320" width="6" height="5" rx="1"/><rect x="1600" y="320" width="6" height="5" rx="1"/>
    <rect x="1660" y="300" width="6" height="5" rx="1"/><rect x="1680" y="300" width="6" height="5" rx="1"/><rect x="1700" y="300" width="6" height="5" rx="1"/><rect x="1720" y="300" width="6" height="5" rx="1"/>
    <rect x="1660" y="340" width="6" height="5" rx="1"/><rect x="1700" y="340" width="6" height="5" rx="1"/>
  </g>

  <!-- ═══ GROUND ═══ -->
  <rect x="0" y="560" width="1920" height="520" fill="#2e4a34"/>
  <rect x="0" y="610" width="1920" height="180" fill="#284030"/>
  <g opacity="0.35"><rect x="60" y="698" width="90" height="4" fill="#fff" rx="2"/><rect x="260" y="698" width="90" height="4" fill="#fff" rx="2"/><rect x="460" y="698" width="90" height="4" fill="#fff" rx="2"/><rect x="660" y="698" width="90" height="4" fill="#fff" rx="2"/><rect x="860" y="698" width="90" height="4" fill="#fff" rx="2"/><rect x="1060" y="698" width="90" height="4" fill="#fff" rx="2"/><rect x="1260" y="698" width="90" height="4" fill="#fff" rx="2"/><rect x="1460" y="698" width="90" height="4" fill="#fff" rx="2"/><rect x="1660" y="698" width="90" height="4" fill="#fff" rx="2"/></g>

  <!-- ═══ BOKEH ═══ -->
  <g filter="url(#g3)"><circle cx="200" cy="380" r="22" fill="#f0c850" opacity="0.4"/><circle cx="500" cy="350" r="18" fill="#5ac06a" opacity="0.35"/><circle cx="800" cy="400" r="24" fill="#f0c850" opacity="0.35"/><circle cx="1050" cy="370" r="18" fill="#5ac06a" opacity="0.4"/><circle cx="1350" cy="400" r="22" fill="#f0c850" opacity="0.35"/><circle cx="1600" cy="360" r="16" fill="#5ac06a" opacity="0.3"/><circle cx="1800" cy="410" r="20" fill="#f0c850" opacity="0.25"/></g>
  <g filter="url(#g2)"><circle cx="100" cy="440" r="12" fill="#f0c850" opacity="0.55"/><circle cx="300" cy="470" r="10" fill="#5ac06a" opacity="0.5"/><circle cx="550" cy="450" r="13" fill="#f0c850" opacity="0.45"/><circle cx="700" cy="480" r="11" fill="#e8962e" opacity="0.5"/><circle cx="900" cy="460" r="12" fill="#f0c850" opacity="0.5"/><circle cx="1150" cy="470" r="10" fill="#5ac06a" opacity="0.45"/><circle cx="1400" cy="445" r="13" fill="#f0c850" opacity="0.4"/><circle cx="1650" cy="465" r="11" fill="#5ac06a" opacity="0.45"/></g>
  <g opacity="0.8"><circle cx="80" cy="430" r="3" fill="#f0c850"/><circle cx="220" cy="455" r="2.5" fill="#fff"/><circle cx="350" cy="425" r="3" fill="#f0c850"/><circle cx="480" cy="475" r="2.5" fill="#5ac06a"/><circle cx="620" cy="430" r="3" fill="#f0c850"/><circle cx="750" cy="490" r="2.5" fill="#fff"/><circle cx="870" cy="445" r="3" fill="#f0c850"/><circle cx="1000" cy="485" r="2.5" fill="#5ac06a"/><circle cx="1120" cy="435" r="3" fill="#f0c850"/><circle cx="1250" cy="495" r="2.5" fill="#fff"/><circle cx="1380" cy="440" r="3" fill="#f0c850"/><circle cx="1520" cy="475" r="2.5" fill="#5ac06a"/><circle cx="1640" cy="430" r="3" fill="#f0c850"/><circle cx="1780" cy="490" r="2.5" fill="#f0c850"/><circle cx="1880" cy="445" r="3" fill="#fff"/></g>

  <!-- ═══ TRUCK ═══ -->
  <g transform="translate(1050,530)">
    <ellipse cx="180" cy="235" rx="210" ry="18" fill="#1e3425" opacity="0.5"/>
    <rect x="0" y="20" width="245" height="155" rx="8" fill="#3a8c4a"/>
    <rect x="0" y="20" width="245" height="78" rx="8" fill="#5ac06a" opacity="0.25"/>
    <rect x="3" y="23" width="239" height="149" rx="7" fill="none" stroke="#6abe6a" stroke-width="1.5" opacity="0.4"/>
    <rect x="0" y="92" width="245" height="5" fill="#f0c850" opacity="0.8" rx="1"/>
    <!-- エコ富 as paths (避けるフォント問題) -->
    <rect x="52" y="42" width="140" height="36" rx="4" fill="#fff" opacity="0.15"/>
    <text x="122" y="68" text-anchor="middle" font-family="Hiragino Kaku Gothic ProN,Hiragino Sans,Yu Gothic,Meiryo,sans-serif" font-weight="900" font-size="34" fill="#fff">エコ富</text>
    <rect x="32" y="98" width="180" height="22" rx="3" fill="#f0c850" opacity="0.1"/>
    <text x="122" y="115" text-anchor="middle" font-family="Hiragino Kaku Gothic ProN,Hiragino Sans,Yu Gothic,Meiryo,sans-serif" font-weight="700" font-size="15" fill="#f0c850">不用品回収・出張買取</text>
    <text x="122" y="148" text-anchor="middle" font-family="sans-serif" font-weight="500" font-size="13" fill="#fff" opacity="0.7">072-600-0259</text>
    <rect x="245" y="50" width="98" height="125" rx="6" fill="#2d6a35"/>
    <rect x="256" y="62" width="38" height="52" rx="4" fill="#1e3425"/>
    <rect x="300" y="62" width="32" height="52" rx="4" fill="#1e3425"/>
    <circle cx="345" cy="132" r="8" fill="#f0c850" opacity="0.9"/>
    <circle cx="55" cy="180" r="30" fill="#1e3425"/><circle cx="55" cy="180" r="23" fill="#2a2a2a"/><circle cx="55" cy="180" r="19" fill="#333"/>
    <circle cx="200" cy="180" r="30" fill="#1e3425"/><circle cx="200" cy="180" r="23" fill="#2a2a2a"/><circle cx="200" cy="180" r="19" fill="#333"/>
    <circle cx="305" cy="180" r="30" fill="#1e3425"/><circle cx="305" cy="180" r="23" fill="#2a2a2a"/><circle cx="305" cy="180" r="19" fill="#333"/>
  </g>

  <!-- 水面 -->
  <rect x="0" y="810" width="1920" height="270" fill="#2a4430" opacity="0.7"/>
  <g opacity="0.15"><rect x="80" y="840" width="250" height="2" fill="#f0c850" rx="1"/><rect x="450" y="860" width="200" height="2" fill="#5ac06a" rx="1"/><rect x="800" y="845" width="300" height="2" fill="#f0c850" rx="1"/><rect x="1200" y="870" width="250" height="2" fill="#5ac06a" rx="1"/><rect x="1550" y="850" width="280" height="2" fill="#f0c850" rx="1"/></g>

  <!-- 星 -->
  <g opacity="0.6"><circle cx="100" cy="40" r="1.5" fill="#fff"/><circle cx="300" cy="70" r="1.2" fill="#fff"/><circle cx="520" cy="30" r="1.5" fill="#fff"/><circle cx="750" cy="55" r="1.2" fill="#fff"/><circle cx="1000" cy="35" r="1.5" fill="#fff"/><circle cx="1250" cy="65" r="1.2" fill="#fff"/><circle cx="1500" cy="40" r="1.5" fill="#fff"/><circle cx="1720" cy="50" r="1.2" fill="#fff"/><circle cx="1880" cy="70" r="1" fill="#fff"/></g>
</svg>
